# xmcd
# Copyright (C) 1995-1998 Ti Kan
#
# Track frame offsets:
#       150
#       13722
#       28542
#       41518
#       58362
#       69055
#       86895
#       105813
#       116217
#       121762
#       141111
#       153608
#       170334
#
# Disc length: 2489 seconds
#
# Revision: 0
# Processed by: cddbd v1.5.2PL0 Copyright (c) Steve Scherf et al.
# Submitted via: CD-Import v1.0
#
DISCID=a609b70d
DTITLE=Low - Drums And Guns
DYEAR=2007
DGENRE=
TTITLE0=Pretty People
TTITLE1=Belarus
TTITLE2=Breaker
TTITLE3=Dragonfly
TTITLE4=Sandinista
TTITLE5=Always Fade
TTITLE6=Dust On The Window
TTITLE7=Hatchet
TTITLE8=Your Poison
TTITLE9=Take Your Time
TTITLE10=In Silence
TTITLE11=Murderer
TTITLE12=Violent Past
EXTD=
EXTT0=
EXTT1=
EXTT2=
EXTT3=
EXTT4=
EXTT5=
EXTT6=
EXTT7=
EXTT8=
EXTT9=
EXTT10=
EXTT11=
EXTT12=
PLAYORDER=
